# xmcd CD database file
#
# Track frame offsets:
#	150
#	16140
#	31442
#	45792
#	63682
#	76168
#	84770
#	107341
#	118050
#	136794
#	148677
#	160357
#	176451
#	188296
#	201680
#	215364
#	226042
#	246992
#	260051
#
# Disc length: 3649 seconds
#
# Revision: 0
# Processed by: cddbd v1.5.1PL2 Copyright (c) Steve Scherf et al.
# Submitted via: CDex 1.51
#
DISCID=f50e3f13
DTITLE=Summervilla - We Got Work To Do
DYEAR=2005
DGENRE=Country
TTITLE0=We Got Work To Do
TTITLE1=I'll Be Better Off Someday
TTITLE2=The Graveside Song
TTITLE3=Twelve Gates
TTITLE4=Fly Away Home
TTITLE5=I Waited for the Lord
TTITLE6=The Darkest Hour
TTITLE7=When the Clock Stops Tickin'
TTITLE8=Land of Beulah
TTITLE9=House of Gold
TTITLE10=Living On Love
TTITLE11=Wade In the Water
TTITLE12=Memories of Mother and Dad
TTITLE13=Suday Morning
TTITLE14=The Promise
TTITLE15=I Am the Man Thomas
TTITLE16=Lucky Old Sun
TTITLE17=God's Green Earth
TTITLE18=Comin' Home
EXTD=YEAR: 2005
EXTT0=
EXTT1=
EXTT2=
EXTT3=
EXTT4=
EXTT5=
EXTT6=
EXTT7=
EXTT8=
EXTT9=
EXTT10=
EXTT11=
EXTT12=
EXTT13=
EXTT14=
EXTT15=
EXTT16=
EXTT17=
EXTT18=
PLAYORDER=
